<svg width="149" height="35" viewBox="0 0 149 35" fill="none" xmlns="http://www.w3.org/2000/svg">
<g clip-path="url(#clip0)">
<path d="M5.55074 1.96439H0L7.69262 16.7002C8.0014 17.3227 8.33714 17.901 8.69984 18.4353C9.06253 18.9695 9.46199 19.44 9.90066 19.8468C10.3393 20.2536 10.8246 20.5722 11.3588 20.805C11.893 21.0379 12.5033 21.1555 13.1919 21.1555C13.8119 21.1555 14.3658 21.0599 14.8559 20.8688C15.3485 20.6801 15.7871 20.4154 16.1743 20.0797C16.5615 19.7439 16.9169 19.342 17.2453 18.8764C17.5712 18.4108 17.8825 17.901 18.1741 17.3472L26.3054 1.88597H20.833L13.1135 16.2076L5.55074 1.96439V1.96439ZM35.6497 1.8345C34.7038 1.8345 33.8215 1.97174 33.0055 2.24866C32.1869 2.52314 31.4738 2.92504 30.8611 3.45194C30.2509 3.97883 29.7681 4.62335 29.4177 5.38305C29.0648 6.14276 28.8884 7.00539 28.8884 7.97095V14.9137C28.8884 15.8278 29.0722 16.661 29.4422 17.4133C29.8123 18.1632 30.3073 18.8102 30.9273 19.3543C31.5473 19.8983 32.2605 20.3223 33.0692 20.6237C33.8779 20.9251 34.7209 21.0771 35.5983 21.0771H55.6324V16.0018H33.7407V13.9285H55.6324V8.98307H33.7407V6.75542H55.6324V1.8345H35.6497V1.8345ZM80.982 9.05904H63.4279V6.72847H86.1725V2.04036H65.3639C64.4866 2.04036 63.6215 2.17514 62.7687 2.44226C61.9183 2.70939 61.1562 3.09904 60.4847 3.60878C59.8132 4.11851 59.2667 4.73853 58.8452 5.47373C58.4237 6.20648 58.2129 7.0397 58.2129 7.97095C58.2129 8.83603 58.3943 9.6325 58.7545 10.3677C59.1172 11.1004 59.6 11.7327 60.2004 12.2571C60.8033 12.784 61.4968 13.1958 62.2786 13.4874C63.0628 13.7815 63.8764 13.9285 64.7194 13.9285H82.5308V16.2076H59.426V20.9986H81.0335C81.8593 20.9986 82.6607 20.8516 83.4351 20.56C84.2095 20.2659 84.8932 19.8591 85.4863 19.342C86.0818 18.8249 86.5597 18.2073 86.9199 17.4893C87.2802 16.7737 87.4615 15.9846 87.4615 15.1195C87.4615 14.2912 87.2949 13.507 86.9591 12.7644C86.6234 12.0219 86.1676 11.3774 85.5917 10.8333C85.0133 10.2893 84.3296 9.85796 83.538 9.53937C82.7465 9.21833 81.8936 9.05904 80.982 9.05904V9.05904ZM90.0445 1.91047V6.75542H101.222V20.9986H106.023V6.75542H117.124V1.91047H90.0445V1.91047ZM125.153 20.9986L127.787 16.0018H137.234L140.099 20.9986H145.366L137.957 6.75542C137.56 5.99572 137.193 5.31198 136.847 4.70912C136.502 4.10381 136.134 3.59407 135.737 3.17991C135.342 2.76575 134.894 2.44717 134.394 2.22171C133.894 1.9987 133.301 1.88597 132.612 1.88597C131.907 1.88597 131.292 1.99379 130.767 2.20945C130.243 2.42511 129.775 2.74124 129.36 3.15541C128.949 3.56957 128.564 4.0695 128.211 4.65766C127.858 5.24337 127.493 5.90014 127.116 6.62554L119.705 20.9986H125.153V20.9986ZM130.265 11.1053L132.536 7.0397L134.781 11.1053H130.265ZM145.358 3.94207V1.22919H146.513C146.802 1.22919 147.013 1.2537 147.142 1.30271C147.275 1.35172 147.38 1.43749 147.459 1.56248C147.539 1.68746 147.579 1.8296 147.579 1.98889C147.579 2.1923 147.517 2.36139 147.397 2.49373C147.28 2.62606 147.098 2.71184 146.861 2.74615C146.981 2.81476 147.079 2.89073 147.155 2.97406C147.233 3.05493 147.336 3.20197 147.466 3.41518L147.799 3.94207H147.142L146.748 3.35146C146.606 3.1407 146.51 3.00837 146.459 2.95445C146.407 2.89809 146.351 2.86133 146.292 2.84172C146.236 2.81967 146.143 2.80986 146.018 2.80986H145.907V3.94207H145.358V3.94207ZM145.907 2.3761H146.312C146.574 2.3761 146.738 2.36629 146.804 2.34424C146.87 2.32218 146.919 2.28297 146.959 2.22906C146.995 2.17514 147.013 2.10652 147.013 2.02565C147.013 1.93253 146.988 1.86146 146.941 1.80509C146.892 1.74628 146.824 1.71197 146.733 1.69726C146.689 1.69236 146.557 1.68746 146.334 1.68746H145.907V2.3761V2.3761ZM146.432 4.75324C147.03 4.75324 147.571 4.51062 147.963 4.11851C148.355 3.72641 148.598 3.18481 148.598 2.58685C148.598 1.98644 148.355 1.44485 147.963 1.05274C147.571 0.660636 147.03 0.418021 146.432 0.418021C145.831 0.418021 145.29 0.660636 144.898 1.05274C144.505 1.44485 144.263 1.98644 144.263 2.58685C144.263 3.18481 144.505 3.72641 144.898 4.11851C145.29 4.51062 145.831 4.75324 146.432 4.75324ZM148.248 4.40279C147.782 4.86842 147.14 5.15514 146.432 5.15514C145.721 5.15514 145.079 4.86842 144.613 4.40279C144.148 3.93717 143.861 3.29509 143.861 2.58685C143.861 1.87861 144.148 1.23654 144.613 0.770916V0.768465C145.079 0.305291 145.721 0.0161133 146.432 0.0161133C147.14 0.0161133 147.782 0.305291 148.248 0.768465V0.770916C148.713 1.23654 149 1.87861 149 2.58685C149 3.29509 148.713 3.93717 148.248 4.40279ZM96.8598 29.3603C96.85 29.1446 96.8157 28.9461 96.7569 28.7599C96.6981 28.5736 96.6098 28.4119 96.4922 28.2746C96.3746 28.1374 96.2226 28.032 96.0388 27.9536C95.8526 27.8727 95.632 27.836 95.3772 27.836C94.8576 27.836 94.4802 27.9732 94.24 28.2452C93.9999 28.5197 93.8406 28.8922 93.7622 29.3603H95.9408H96.8598V29.3603ZM59.426 29.3603H91.3385C91.3924 29.0515 91.4757 28.7623 91.5909 28.4952C91.8065 27.9953 92.1031 27.5787 92.478 27.2405C92.8554 26.9023 93.2941 26.6499 93.7916 26.4783C94.2915 26.3068 94.8209 26.221 95.3772 26.221C95.9163 26.221 96.4064 26.3043 96.8525 26.471C97.2985 26.6376 97.6832 26.8655 98.0116 27.1596C98.34 27.4537 98.6071 27.7943 98.8105 28.1791C99.0164 28.5663 99.1536 28.9804 99.2222 29.4191C99.2615 29.6544 99.286 29.8945 99.2958 30.1396C99.3056 30.3847 99.2909 30.6322 99.2516 30.8871H95.9408H93.7622C93.772 31.0929 93.8161 31.3012 93.8945 31.512C93.9729 31.7227 94.093 31.9114 94.2548 32.083C94.4165 32.2545 94.6248 32.3967 94.8772 32.5094C95.1321 32.6221 95.4458 32.6785 95.8183 32.6785C96.0609 32.6785 96.3256 32.6515 96.6098 32.5976C96.8941 32.5437 97.1759 32.4775 97.4553 32.3991C97.7322 32.3207 97.9994 32.2349 98.2542 32.1418C98.5091 32.0487 98.737 31.958 98.9429 31.8722L98.59 33.8376C98.59 33.8572 98.4993 33.8916 98.313 33.9406C98.1268 33.9896 97.8891 34.041 97.5999 34.095C97.3132 34.1489 96.9872 34.1954 96.6245 34.2347C96.2618 34.2739 95.9065 34.2935 95.5536 34.2935C94.887 34.2935 94.2915 34.2003 93.7622 34.0141C93.2353 33.8278 92.7868 33.5607 92.4192 33.2152C92.0541 32.8672 91.7698 32.4408 91.5688 31.9359C91.4414 31.6149 91.3532 31.2645 91.3066 30.8871H59.426V29.3603V29.3603ZM100.617 23.5939H103.111V34.0729H100.617V23.5939ZM110.069 29.3603C110.059 29.1446 110.025 28.9461 109.966 28.7599C109.907 28.5736 109.819 28.4119 109.701 28.2746C109.584 28.1374 109.432 28.032 109.245 27.9536C109.062 27.8727 108.841 27.836 108.586 27.836C108.067 27.836 107.689 27.9732 107.449 28.2452C107.209 28.5197 107.05 28.8922 106.971 29.3603H110.069V29.3603ZM106.971 30.8871C106.981 31.0929 107.025 31.3012 107.104 31.512C107.182 31.7227 107.302 31.9114 107.464 32.083C107.626 32.2545 107.834 32.3967 108.086 32.5094C108.341 32.6221 108.655 32.6785 109.027 32.6785C109.27 32.6785 109.535 32.6515 109.819 32.5976C110.103 32.5437 110.385 32.4775 110.662 32.3991C110.941 32.3207 111.208 32.2349 111.463 32.1418C111.716 32.0487 111.946 31.958 112.152 31.8722L111.799 33.8376C111.799 33.8572 111.706 33.8916 111.522 33.9406C111.336 33.9896 111.098 34.041 110.809 34.095C110.52 34.1489 110.196 34.1954 109.834 34.2347C109.471 34.2739 109.113 34.2935 108.763 34.2935C108.096 34.2935 107.501 34.2003 106.971 34.0141C106.444 33.8278 105.996 33.5607 105.628 33.2152C105.261 32.8672 104.979 32.4408 104.778 31.9359C104.577 31.4335 104.476 30.8625 104.476 30.2278C104.476 29.571 104.584 28.9951 104.8 28.4952C105.016 27.9953 105.31 27.5787 105.687 27.2405C106.064 26.9023 106.501 26.6499 107.001 26.4783C107.501 26.3068 108.027 26.221 108.586 26.221C109.123 26.221 109.615 26.3043 110.061 26.471C110.505 26.6376 110.892 26.8655 111.221 27.1596C111.549 27.4537 111.814 27.7943 112.02 28.1791C112.225 28.5663 112.363 28.9804 112.431 29.4191C112.47 29.6544 112.495 29.8945 112.505 30.1396C112.515 30.3847 112.5 30.6322 112.461 30.8871H106.971V30.8871ZM115.879 30.2866C115.879 30.6175 115.928 30.9312 116.026 31.2252C116.124 31.5193 116.271 31.7742 116.468 31.9874C116.664 32.2031 116.909 32.3721 117.2 32.4947C117.494 32.6172 117.837 32.6785 118.23 32.6785C118.472 32.6785 118.705 32.6515 118.926 32.5976C119.146 32.5437 119.359 32.4775 119.565 32.3991C119.769 32.3207 119.97 32.2349 120.166 32.1418C120.362 32.0487 120.563 31.958 120.768 31.8722V33.7347C120.602 33.7837 120.428 33.8401 120.246 33.9038C120.065 33.9675 119.854 34.0288 119.617 34.0876C119.376 34.1464 119.097 34.1954 118.778 34.2347C118.46 34.2739 118.092 34.2935 117.671 34.2935C117.004 34.2935 116.409 34.2003 115.879 34.0141C115.352 33.8278 114.904 33.5607 114.536 33.2152C114.171 32.8672 113.887 32.4408 113.686 31.9359C113.485 31.4335 113.385 30.8625 113.385 30.2278C113.385 29.6103 113.485 29.0564 113.686 28.5614C113.887 28.0688 114.171 27.6473 114.536 27.2993C114.904 26.9513 115.352 26.6866 115.879 26.5004C116.409 26.3141 117.004 26.221 117.671 26.221C118.092 26.221 118.46 26.2406 118.778 26.2798C119.097 26.319 119.376 26.368 119.617 26.4269C119.854 26.4857 120.065 26.5469 120.246 26.6107C120.428 26.6744 120.602 26.7283 120.768 26.7773V28.6422C120.563 28.554 120.362 28.4633 120.166 28.3702C119.97 28.2771 119.769 28.1913 119.565 28.1129C119.359 28.0345 119.146 27.9708 118.926 27.9169C118.705 27.8629 118.472 27.836 118.23 27.836C117.837 27.836 117.494 27.9021 117.2 28.032C116.909 28.1644 116.664 28.3433 116.468 28.5687C116.271 28.7942 116.124 29.054 116.026 29.3456C115.928 29.6397 115.879 29.9533 115.879 30.2866V30.2866ZM126.638 28.0688H125.067V31.5634C125.067 31.7987 125.101 31.9727 125.17 32.0903C125.238 32.208 125.341 32.2888 125.479 32.3329C125.616 32.3771 125.785 32.3967 125.986 32.3918C126.184 32.3869 126.417 32.3844 126.682 32.3844V34.0729C126.476 34.0925 126.236 34.1121 125.956 34.1317C125.677 34.1513 125.393 34.1611 125.104 34.1611C124.817 34.1611 124.542 34.1464 124.283 34.117C124.023 34.0876 123.81 34.0288 123.643 33.9406C123.332 33.7837 123.077 33.5607 122.881 33.274C122.685 32.9848 122.587 32.551 122.587 31.9727V28.0688H121.339V26.4538H122.587V24.1526H125.082L125.067 26.4538H126.638V28.0688V28.0688ZM127.797 26.9832C128.091 26.8361 128.434 26.7087 128.826 26.6009C129.167 26.5053 129.588 26.4171 130.088 26.3386C130.586 26.2602 131.169 26.221 131.833 26.221C131.98 26.221 132.139 26.2283 132.311 26.2431C132.483 26.2578 132.642 26.2725 132.786 26.2872C132.933 26.3019 133.054 26.319 133.147 26.3386C133.24 26.3582 133.281 26.368 133.272 26.368V28.0982C133.203 28.0688 133.107 28.0418 132.985 28.01C132.865 27.983 132.73 27.9585 132.583 27.9365C132.436 27.9193 132.282 27.9022 132.12 27.885C131.958 27.8727 131.814 27.8654 131.686 27.8654C131.47 27.8654 131.279 27.885 131.108 27.9316C130.936 27.9732 130.789 28.0198 130.667 28.0688C130.544 28.1178 130.451 28.1644 130.387 28.2085C130.324 28.2526 130.294 28.2796 130.294 28.2894V34.0729H127.797V26.9832V26.9832ZM134.166 26.4538H136.663V34.0729H134.166V26.4538ZM136.663 25.5005H134.166V23.5939H136.663V25.5005ZM140.479 30.2866C140.479 30.6175 140.528 30.9312 140.626 31.2252C140.724 31.5193 140.871 31.7742 141.065 31.9874C141.261 32.2031 141.506 32.3721 141.8 32.4947C142.094 32.6172 142.435 32.6785 142.827 32.6785C143.072 32.6785 143.305 32.6515 143.525 32.5976C143.743 32.5437 143.957 32.4775 144.162 32.3991C144.368 32.3207 144.569 32.2349 144.763 32.1418C144.959 32.0487 145.16 31.958 145.366 31.8722V33.7347C145.199 33.7837 145.025 33.8401 144.846 33.9038C144.665 33.9675 144.454 34.0288 144.214 34.0876C143.974 34.1464 143.694 34.1954 143.378 34.2347C143.06 34.2739 142.69 34.2935 142.268 34.2935C141.604 34.2935 141.006 34.2003 140.479 34.0141C139.95 33.8278 139.504 33.5607 139.136 33.2152C138.769 32.8672 138.484 32.4408 138.283 31.9359C138.085 31.4335 137.984 30.8625 137.984 30.2278C137.984 29.6103 138.085 29.0564 138.283 28.5614C138.484 28.0688 138.769 27.6473 139.136 27.2993C139.504 26.9513 139.95 26.6866 140.479 26.5004C141.006 26.3141 141.604 26.221 142.268 26.221C142.69 26.221 143.06 26.2406 143.378 26.2798C143.694 26.319 143.974 26.368 144.214 26.4269C144.454 26.4857 144.665 26.5469 144.846 26.6107C145.025 26.6744 145.199 26.7283 145.366 26.7773V28.6422C145.16 28.554 144.959 28.4633 144.763 28.3702C144.569 28.2771 144.368 28.1913 144.162 28.1129C143.957 28.0345 143.743 27.9708 143.525 27.9169C143.305 27.8629 143.072 27.836 142.827 27.836C142.435 27.836 142.094 27.9021 141.8 28.032C141.506 28.1644 141.261 28.3433 141.065 28.5687C140.871 28.7942 140.724 29.054 140.626 29.3456C140.528 29.6397 140.479 29.9533 140.479 30.2866Z" fill="#2B2A29"/>
</g>
<defs>
<clipPath id="clip0">
<rect width="149" height="34.3092" fill="white"/>
</clipPath>
</defs>
</svg>
