<svg width="149" height="35" viewBox="0 0 149 35" fill="none" xmlns="http://www.w3.org/2000/svg">
<g clip-path="url(#clip0)">
<path d="M5.55266 1.96169H0L7.69655 16.6955C8.00205 17.3173 8.33971 17.8961 8.69881 18.4321C9.06327 18.9681 9.45989 19.4397 9.89939 19.847C10.3389 20.249 10.8266 20.5706 11.3626 20.8011C11.8932 21.0369 12.5042 21.1548 13.1903 21.1548C13.812 21.1548 14.3694 21.0583 14.8571 20.8654C15.3502 20.6778 15.7897 20.4152 16.1756 20.0775C16.5615 19.7399 16.9206 19.3379 17.2476 18.8716C17.5745 18.4053 17.88 17.8961 18.1748 17.3441L26.3055 1.88129H20.8332L13.1152 16.2078L5.55266 1.96169V1.96169ZM35.6528 1.83306C34.7041 1.83306 33.8251 1.97241 33.0051 2.24575C32.1904 2.52446 31.4722 2.92644 30.8612 3.45169C30.2502 3.97694 29.7678 4.62011 29.4195 5.38119C29.0657 6.14226 28.8888 7.00518 28.8888 7.96993V14.9108C28.8888 15.8273 29.0711 16.658 29.4409 17.4084C29.8107 18.1587 30.3092 18.8073 30.9255 19.354C31.5473 19.8953 32.2601 20.3187 33.0694 20.6188C33.8787 20.9244 34.7202 21.0744 35.5992 21.0744H55.6338V15.9988H33.7394V13.9246H55.6338V8.97755H33.7394V6.75327H55.6338V1.83306H35.6528V1.83306ZM80.9799 9.05795H63.4268V6.72647H86.1735V2.03672H65.3617C64.4881 2.03672 63.6198 2.17072 62.7676 2.4387C61.9154 2.70669 61.1543 3.09795 60.4844 3.60712C59.8144 4.11629 59.2677 4.73802 58.8443 5.4723C58.4262 6.20658 58.2118 7.03734 58.2118 7.96993C58.2118 8.83284 58.3941 9.63144 58.7532 10.3657C59.1176 11.1 59.6 11.7271 60.2003 12.2577C60.8059 12.7829 61.4973 13.1903 62.2799 13.4851C63.0624 13.7799 63.8771 13.9246 64.7185 13.9246H82.5342V16.2078H59.4285V20.9994H81.0335C81.8589 20.9994 82.6575 20.8493 83.4346 20.5545C84.2118 20.2651 84.8925 19.8578 85.4874 19.3379C86.0823 18.8233 86.5594 18.2016 86.9185 17.4888C87.2829 16.7706 87.4598 15.9827 87.4598 15.1198C87.4598 14.289 87.2936 13.5011 86.956 12.7615C86.6237 12.0165 86.1681 11.3733 85.5892 10.832C85.0158 10.2853 84.3297 9.85655 83.5365 9.53496C82.7486 9.21874 81.8964 9.05795 80.9799 9.05795V9.05795ZM90.0432 1.90809V6.75327H101.224V20.9994H106.02V6.75327H117.126V1.90809H90.0432V1.90809ZM125.155 20.9994L127.786 15.9988H137.235L140.098 20.9994H145.366L137.954 6.75327C137.562 5.99219 137.193 5.31151 136.844 4.70586C136.501 4.10021 136.131 3.59104 135.735 3.17834C135.338 2.76565 134.893 2.44406 134.395 2.21896C133.896 1.99385 133.301 1.88129 132.61 1.88129C131.908 1.88129 131.292 1.99385 130.766 2.20824C130.241 2.42262 129.775 2.73885 129.362 3.15154C128.944 3.56424 128.563 4.06806 128.21 4.65226C127.856 5.24183 127.491 5.89572 127.116 6.62464L119.704 20.9994H125.155V20.9994ZM130.262 11.1054L132.535 7.03734L134.781 11.1054H130.262ZM145.355 3.93942V1.22741H146.513C146.803 1.22741 147.012 1.24885 147.14 1.30244C147.274 1.35068 147.381 1.43644 147.456 1.55971C147.537 1.68298 147.574 1.8277 147.574 1.98849C147.574 2.19216 147.515 2.35831 147.397 2.4923C147.28 2.62629 147.097 2.70669 146.861 2.74421C146.979 2.81388 147.076 2.88892 147.151 2.96931C147.231 3.05507 147.333 3.19978 147.467 3.41417L147.799 3.93942H147.14L146.744 3.34985C146.604 3.14083 146.508 3.00683 146.454 2.95324C146.406 2.89428 146.352 2.85676 146.293 2.84068C146.234 2.81924 146.143 2.80852 146.015 2.80852H145.907V3.93942H145.355V3.93942ZM145.907 2.37439H146.309C146.572 2.37439 146.738 2.36367 146.803 2.34223C146.867 2.32079 146.92 2.28327 146.958 2.22431C146.995 2.17072 147.012 2.1064 147.012 2.02601C147.012 1.92953 146.99 1.85985 146.937 1.8009C146.888 1.7473 146.819 1.70978 146.733 1.6937C146.69 1.68834 146.556 1.68834 146.331 1.68834H145.907V2.37439V2.37439ZM146.427 4.74874C147.028 4.74874 147.569 4.50755 147.96 4.11629C148.351 3.72503 148.598 3.1837 148.598 2.58342C148.598 1.98313 148.351 1.4418 147.96 1.05054C147.569 0.659279 147.028 0.418092 146.427 0.418092C145.832 0.418092 145.291 0.659279 144.894 1.05054C144.503 1.4418 144.262 1.98313 144.262 2.58342C144.262 3.1837 144.503 3.72503 144.894 4.11629C145.291 4.50755 145.832 4.74874 146.427 4.74874ZM148.244 4.40036C147.778 4.86665 147.14 5.15608 146.427 5.15608C145.72 5.15608 145.077 4.86665 144.616 4.40036H144.61C144.149 3.93406 143.86 3.2909 143.86 2.58342C143.86 1.87593 144.149 1.23277 144.61 0.766473H144.616C145.077 0.300178 145.72 0.0161133 146.427 0.0161133C147.14 0.0161133 147.778 0.300178 148.244 0.766473C148.711 1.23277 149 1.87593 149 2.58342C149 3.2909 148.711 3.93406 148.244 4.40036ZM96.8607 29.3605C96.85 29.1408 96.8178 28.9425 96.7589 28.7549C96.6999 28.5727 96.6088 28.4119 96.4909 28.2725C96.373 28.1385 96.2229 28.026 96.0353 27.9509C95.8531 27.8705 95.6333 27.833 95.3761 27.833C94.8562 27.833 94.481 27.967 94.2398 28.2457C93.9986 28.5191 93.8432 28.8889 93.7628 29.3605H95.9388H96.8607V29.3605ZM59.4285 29.3605H91.3402C91.3938 29.0497 91.4742 28.7603 91.5921 28.4923C91.8065 27.9938 92.1013 27.5758 92.4765 27.2381C92.857 26.9004 93.2912 26.6485 93.7896 26.477C94.2934 26.3055 94.8187 26.2197 95.3761 26.2197C95.912 26.2197 96.4051 26.3001 96.85 26.4663C97.2949 26.6324 97.6808 26.8629 98.0131 27.1577C98.34 27.4525 98.608 27.7901 98.8117 28.176C99.0153 28.5619 99.1547 28.9746 99.2244 29.4195C99.2619 29.65 99.2833 29.8911 99.294 30.1377C99.3047 30.3789 99.2887 30.6308 99.2511 30.8827H95.9388H93.7628C93.7735 31.0917 93.8164 31.3008 93.8968 31.5098C93.9718 31.7188 94.0951 31.9118 94.2559 32.0833C94.4167 32.2548 94.6257 32.3941 94.8776 32.5067C95.1295 32.6192 95.4458 32.6782 95.8156 32.6782C96.0621 32.6782 96.3247 32.646 96.6088 32.5924C96.8929 32.5388 97.1769 32.4745 97.4556 32.3941C97.7344 32.3191 97.997 32.2333 98.2542 32.1422C98.5062 32.0458 98.7366 31.9546 98.9456 31.8689L98.5919 33.8359C98.5919 33.8573 98.4954 33.8895 98.3132 33.9377C98.1256 33.986 97.8898 34.0396 97.6004 34.0932C97.3109 34.1468 96.9894 34.1896 96.6249 34.2325C96.2604 34.27 95.9067 34.2915 95.5529 34.2915C94.8883 34.2915 94.2934 34.195 93.7628 34.0128C93.2322 33.8252 92.7873 33.5572 92.4175 33.2088C92.0531 32.8658 91.769 32.437 91.5653 31.9332C91.442 31.6116 91.3509 31.2632 91.3081 30.8827H59.4285V29.3605V29.3605ZM100.618 23.5935H103.11V34.0717H100.618V23.5935V23.5935ZM110.067 29.3605C110.056 29.1408 110.024 28.9425 109.965 28.7549C109.906 28.5727 109.82 28.4119 109.703 28.2725C109.585 28.1385 109.429 28.026 109.247 27.9509C109.059 27.8705 108.84 27.833 108.588 27.833C108.068 27.833 107.687 27.967 107.446 28.2457C107.21 28.5191 107.05 28.8889 106.969 29.3605H110.067V29.3605ZM106.969 30.8827C106.98 31.0917 107.023 31.3008 107.103 31.5098C107.184 31.7188 107.301 31.9118 107.462 32.0833C107.623 32.2548 107.832 32.3941 108.084 32.5067C108.341 32.6192 108.652 32.6782 109.027 32.6782C109.268 32.6782 109.536 32.646 109.821 32.5924C110.099 32.5388 110.383 32.4745 110.662 32.3941C110.941 32.3191 111.209 32.2333 111.461 32.1422C111.718 32.0458 111.948 31.9546 112.152 31.8689L111.798 33.8359C111.798 33.8573 111.707 33.8895 111.52 33.9377C111.337 33.986 111.096 34.0396 110.807 34.0932C110.523 34.1468 110.196 34.1896 109.831 34.2325C109.472 34.27 109.113 34.2915 108.759 34.2915C108.095 34.2915 107.5 34.195 106.969 34.0128C106.444 33.8252 105.994 33.5572 105.629 33.2088C105.259 32.8658 104.975 32.437 104.777 31.9332C104.579 31.4294 104.477 30.8613 104.477 30.2235C104.477 29.5696 104.584 28.9907 104.798 28.4923C105.013 27.9938 105.308 27.5758 105.688 27.2381C106.063 26.9004 106.503 26.6485 107.001 26.477C107.5 26.3055 108.03 26.2197 108.588 26.2197C109.124 26.2197 109.617 26.3001 110.062 26.4663C110.507 26.6324 110.892 26.8629 111.219 27.1577C111.546 27.4525 111.814 27.7901 112.018 28.176C112.227 28.5619 112.361 28.9746 112.431 29.4195C112.468 29.65 112.495 29.8911 112.506 30.1377C112.516 30.3789 112.5 30.6308 112.457 30.8827H106.969V30.8827ZM115.882 30.2824C115.882 30.6147 115.931 30.9309 116.027 31.2204C116.124 31.5151 116.268 31.7724 116.467 31.9868C116.665 32.2012 116.906 32.3727 117.201 32.4906C117.496 32.6139 117.839 32.6782 118.23 32.6782C118.471 32.6782 118.707 32.646 118.927 32.5924C119.146 32.5388 119.361 32.4745 119.564 32.3941C119.768 32.3191 119.972 32.2333 120.165 32.1422C120.363 32.0458 120.561 31.9546 120.765 31.8689V33.7341C120.599 33.7823 120.427 33.8359 120.245 33.9002C120.063 33.9645 119.854 34.0235 119.613 34.0824C119.377 34.1414 119.098 34.1896 118.777 34.2325C118.46 34.27 118.091 34.2915 117.672 34.2915C117.003 34.2915 116.408 34.195 115.882 34.0128C115.352 33.8252 114.902 33.5572 114.537 33.2088C114.167 32.8658 113.883 32.437 113.685 31.9332C113.487 31.4294 113.385 30.8613 113.385 30.2235C113.385 29.6071 113.487 29.055 113.685 28.5566C113.883 28.0635 114.167 27.6454 114.537 27.297C114.902 26.9487 115.352 26.6807 115.882 26.4985C116.408 26.3109 117.003 26.2197 117.672 26.2197C118.091 26.2197 118.46 26.2358 118.777 26.2787C119.098 26.3162 119.377 26.3645 119.613 26.4234C119.854 26.4824 120.063 26.5413 120.245 26.6056C120.427 26.67 120.599 26.7289 120.765 26.7772V28.6423C120.561 28.5512 120.363 28.4601 120.165 28.369C119.972 28.2779 119.768 28.1868 119.564 28.1117C119.361 28.0313 119.146 27.967 118.927 27.9134C118.707 27.8598 118.471 27.833 118.23 27.833C117.839 27.833 117.496 27.8973 117.201 28.0313C116.906 28.16 116.665 28.3422 116.467 28.5673C116.268 28.7924 116.124 29.0497 116.027 29.3445C115.931 29.6392 115.882 29.9501 115.882 30.2824V30.2824ZM126.639 28.0688H125.069V31.558C125.069 31.7938 125.101 31.9707 125.171 32.0886C125.24 32.2065 125.342 32.2869 125.476 32.3298C125.616 32.3727 125.782 32.3941 125.985 32.3888C126.184 32.3834 126.42 32.3834 126.682 32.3834V34.0717C126.478 34.0878 126.232 34.1092 125.953 34.1307C125.675 34.1468 125.39 34.1575 125.101 34.1575C124.817 34.1575 124.538 34.1414 124.281 34.1146C124.024 34.0824 123.809 34.0235 123.643 33.9377C123.332 33.7823 123.075 33.5572 122.882 33.2678C122.684 32.9837 122.587 32.5496 122.587 31.9707V28.0688H121.339V26.4502H122.587V24.1509H125.08L125.069 26.4502H126.639V28.0688V28.0688ZM127.797 26.9808C128.092 26.8361 128.435 26.7075 128.826 26.6003C129.169 26.5038 129.587 26.4127 130.086 26.3377C130.584 26.2573 131.168 26.2197 131.833 26.2197C131.978 26.2197 132.138 26.2251 132.31 26.2412C132.481 26.2573 132.642 26.268 132.787 26.2841C132.932 26.3001 133.055 26.3162 133.146 26.3377C133.237 26.3537 133.28 26.3645 133.269 26.3645V28.0956C133.205 28.0688 133.108 28.0367 132.985 28.0099C132.862 27.9777 132.728 27.9563 132.583 27.9349C132.433 27.9134 132.283 27.8973 132.117 27.8813C131.956 27.8705 131.811 27.8598 131.688 27.8598C131.468 27.8598 131.275 27.8813 131.104 27.9295C130.938 27.9724 130.788 28.0206 130.664 28.0688C130.541 28.1171 130.45 28.16 130.386 28.2082C130.321 28.2511 130.289 28.2779 130.289 28.2886V34.0717H127.797V26.9808V26.9808ZM134.164 26.4502H136.662V34.0717H134.164V26.4502ZM136.662 25.4962H134.164V23.5935H136.662V25.4962ZM140.478 30.2824C140.478 30.6147 140.526 30.9309 140.623 31.2204C140.725 31.5151 140.869 31.7724 141.062 31.9868C141.261 32.2012 141.507 32.3727 141.797 32.4906C142.091 32.6139 142.434 32.6782 142.826 32.6782C143.072 32.6782 143.303 32.646 143.522 32.5924C143.742 32.5388 143.957 32.4745 144.16 32.3941C144.369 32.3191 144.568 32.2333 144.76 32.1422C144.959 32.0458 145.157 31.9546 145.366 31.8689V33.7341C145.2 33.7823 145.023 33.8359 144.846 33.9002C144.664 33.9645 144.455 34.0235 144.214 34.0824C143.973 34.1414 143.694 34.1896 143.378 34.2325C143.056 34.27 142.686 34.2915 142.268 34.2915C141.604 34.2915 141.003 34.195 140.478 34.0128C139.947 33.8252 139.503 33.5572 139.133 33.2088C138.768 32.8658 138.484 32.437 138.286 31.9332C138.082 31.4294 137.98 30.8613 137.98 30.2235C137.98 29.6071 138.082 29.055 138.286 28.5566C138.484 28.0635 138.768 27.6454 139.133 27.297C139.503 26.9487 139.947 26.6807 140.478 26.4985C141.003 26.3109 141.604 26.2197 142.268 26.2197C142.686 26.2197 143.056 26.2358 143.378 26.2787C143.694 26.3162 143.973 26.3645 144.214 26.4234C144.455 26.4824 144.664 26.5413 144.846 26.6056C145.023 26.67 145.2 26.7289 145.366 26.7772V28.6423C145.157 28.5512 144.959 28.4601 144.76 28.369C144.568 28.2779 144.369 28.1868 144.16 28.1117C143.957 28.0313 143.742 27.967 143.522 27.9134C143.303 27.8598 143.072 27.833 142.826 27.833C142.434 27.833 142.091 27.8973 141.797 28.0313C141.507 28.16 141.261 28.3422 141.062 28.5673C140.869 28.7924 140.725 29.0497 140.623 29.3445C140.526 29.6392 140.478 29.9501 140.478 30.2824V30.2824Z" fill="#FEFEFE"/>
</g>
<defs>
<clipPath id="clip0">
<rect width="149" height="34.3022" fill="white"/>
</clipPath>
</defs>
</svg>
